<svg xmlns="http://www.w3.org/2000/svg" width="611" height="320" viewBox="0 0 611 320" role="img" aria-label="Holo Code sha256:4923b54c5e…">
  <defs><linearGradient id="bg" x1="0" y1="0" x2="1" y2="1"><stop offset="0" stop-color="#0b0e17"/><stop offset="1" stop-color="#141a2b"/></linearGradient></defs>
  <rect width="611" height="320" rx="26" fill="url(#bg)"/>
  <rect x="45.2" y="45.2" width="229.7" height="229.7" rx="19.8" fill="#ffffff0a" stroke="hsl(103 70% 60%)" stroke-opacity="0.25"/>
  <rect x="61.0" y="61.0" width="40.1" height="40.1" rx="7.1" fill="hsl(103 70% 60%)"/><rect x="219.4" y="61.0" width="40.1" height="40.1" rx="7.1" fill="hsl(178 70% 56%)"/><rect x="61.0" y="100.6" width="40.1" height="40.1" rx="7.1" fill="hsl(103 70% 60%)"/><rect x="219.4" y="100.6" width="40.1" height="40.1" rx="7.1" fill="hsl(178 70% 56%)"/><rect x="100.6" y="100.6" width="40.1" height="40.1" rx="7.1" fill="hsl(103 70% 60%)"/><rect x="179.8" y="100.6" width="40.1" height="40.1" rx="7.1" fill="hsl(178 70% 56%)"/><rect x="140.2" y="100.6" width="40.1" height="40.1" rx="7.1" fill="hsl(103 70% 60%)"/><rect x="140.2" y="100.6" width="40.1" height="40.1" rx="7.1" fill="hsl(178 70% 56%)"/><rect x="61.0" y="179.8" width="40.1" height="40.1" rx="7.1" fill="hsl(103 70% 60%)"/><rect x="219.4" y="179.8" width="40.1" height="40.1" rx="7.1" fill="hsl(178 70% 56%)"/><rect x="100.6" y="179.8" width="40.1" height="40.1" rx="7.1" fill="hsl(103 70% 60%)"/><rect x="179.8" y="179.8" width="40.1" height="40.1" rx="7.1" fill="hsl(178 70% 56%)"/><rect x="140.2" y="179.8" width="40.1" height="40.1" rx="7.1" fill="hsl(103 70% 60%)"/><rect x="140.2" y="179.8" width="40.1" height="40.1" rx="7.1" fill="hsl(178 70% 56%)"/>
    <text x="381" y="134.4" font-family="ui-sans-serif,system-ui,Segoe UI,Roboto,sans-serif" font-size="42" font-weight="700" fill="#f4f6fb">Holo Code</text>
    <text x="381" y="179.20000000000002" font-family="ui-sans-serif,system-ui,sans-serif" font-size="21" fill="#9aa4bf">Running on Hologram · live on your device</text>
    <text x="381" y="230.39999999999998" font-family="ui-monospace,Menlo,Consolas,monospace" font-size="19" fill="hsl(103 70% 60%)">sha256:4923b54c5e…</text>
</svg>