<svg viewBox="0 0 1080 540" width="100%" preserveAspectRatio="xMidYMid meet" xmlns="http://www.w3.org/2000/svg" role="img" aria-label="HOLOGRAM OS">
<title>Hologram OS</title>
<desc>The Hologram OS dot-mark, pulsing with an outward brightness ripple, above the HOLOGRAM OS wordmark on black.</desc>
<defs>
  <style>
    .mark circle{ fill:#fff; animation:puls 2.8s ease-in-out infinite; }
    @keyframes puls{ 0%{opacity:var(--b)} 30%{opacity:var(--p)} 60%{opacity:var(--b)} 100%{opacity:var(--b)} }
    .mark{ animation:breathe 4.6s ease-in-out infinite; transform-origin:540px 162px; }
    @keyframes breathe{ 0%,100%{transform:scale(1)} 50%{transform:scale(1.012)} }
    .wm{ font-family:"Helvetica Neue",Helvetica,Arial,system-ui,"Segoe UI",sans-serif; font-weight:400; font-size:96px; letter-spacing:.02em; fill:#fff; }
    @media (prefers-reduced-motion: reduce){ .mark,.mark circle{ animation:none } }
  </style>
</defs>

<rect width="1080" height="540" fill="#000"/>

<g class="mark"><g transform="translate(540,162) scale(0.84)"><circle cx="0.2" cy="-97.39" r="2.61" style="--b:0.14;--p:0.74;animation-delay:-2.62s" opacity="0.14"/><circle cx="-22.86" cy="-86.55" r="2.71" style="--b:0.14;--p:0.74;animation-delay:-2.41s" opacity="0.14"/><circle cx="22.54" cy="-86.32" r="2.81" style="--b:0.14;--p:0.74;animation-delay:-2.40s" opacity="0.14"/><circle cx="-0.03" cy="-76.01" r="2.71" style="--b:0.23;--p:0.83;animation-delay:-2.05s" opacity="0.23"/><circle cx="45.26" cy="-75.92" r="7.8" style="--b:0.51;--p:0.96;animation-delay:-2.38s" opacity="0.51"/><circle cx="-45.82" cy="-75.86" r="2.61" style="--b:0.14;--p:0.74;animation-delay:-2.39s" opacity="0.14"/><circle cx="68.34" cy="-65.13" r="7.7" style="--b:0.47;--p:0.92;animation-delay:-2.54s" opacity="0.47"/><circle cx="-68.83" cy="-65" r="2.61" style="--b:0.14;--p:0.74;animation-delay:-2.55s" opacity="0.14"/><circle cx="-22.91" cy="-64.9" r="2.61" style="--b:0.29;--p:0.89;animation-delay:-1.85s" opacity="0.29"/><circle cx="22.71" cy="-64.88" r="2.51" style="--b:0.30;--p:0.90;animation-delay:-1.85s" opacity="0.30"/><circle cx="91.24" cy="-54.34" r="2.61" style="--b:0.14;--p:0.74;animation-delay:-2.86s" opacity="0.14"/><circle cx="-45.94" cy="-54.25" r="7.83" style="--b:0.63;--p:1.00;animation-delay:-1.91s" opacity="0.63"/><circle cx="-91.17" cy="-54.19" r="2.71" style="--b:0.14;--p:0.74;animation-delay:-2.86s" opacity="0.14"/><circle cx="-0.03" cy="-54.19" r="2.71" style="--b:0.43;--p:1.00;animation-delay:-1.46s" opacity="0.43"/><circle cx="45.35" cy="-54.19" r="7.8" style="--b:0.63;--p:1.00;animation-delay:-1.90s" opacity="0.63"/><circle cx="-22.86" cy="-43.64" r="2.71" style="--b:0.47;--p:1.00;animation-delay:-1.33s" opacity="0.47"/><circle cx="22.71" cy="-43.49" r="2.51" style="--b:0.47;--p:1.00;animation-delay:-1.32s" opacity="0.47"/><circle cx="68.29" cy="-43.47" r="7.73" style="--b:0.56;--p:1.00;animation-delay:-2.18s" opacity="0.56"/><circle cx="-68.6" cy="-43.37" r="7.73" style="--b:0.56;--p:1.00;animation-delay:-2.19s" opacity="0.56"/><circle cx="-45.85" cy="-32.63" r="7.77" style="--b:0.72;--p:1.00;animation-delay:-1.52s" opacity="0.72"/><circle cx="45.36" cy="-32.6" r="7.8" style="--b:0.73;--p:1.00;animation-delay:-1.50s" opacity="0.73"/><circle cx="-91.26" cy="-32.55" r="2.71" style="--b:0.14;--p:0.74;animation-delay:-2.61s" opacity="0.14"/><circle cx="0.1" cy="-32.51" r="2.61" style="--b:0.62;--p:1.00;animation-delay:-0.88s" opacity="0.62"/><circle cx="91.24" cy="-32.51" r="2.61" style="--b:0.14;--p:0.74;animation-delay:-2.61s" opacity="0.14"/><circle cx="68.22" cy="-21.95" r="7.83" style="--b:0.62;--p:1.00;animation-delay:-1.93s" opacity="0.62"/><circle cx="22.67" cy="-21.84" r="7.87" style="--b:0.89;--p:1.00;animation-delay:-0.85s" opacity="0.89"/><circle cx="-22.86" cy="-21.82" r="2.71" style="--b:0.63;--p:1.00;animation-delay:-0.85s" opacity="0.63"/><circle cx="-68.57" cy="-21.8" r="7.8" style="--b:0.62;--p:1.00;animation-delay:-1.94s" opacity="0.62"/><circle cx="45.45" cy="-11.06" r="7.73" style="--b:0.79;--p:1.00;animation-delay:-1.26s" opacity="0.79"/><circle cx="-0.19" cy="-11.04" r="7.87" style="--b:1.00;--p:1.00;animation-delay:-0.30s" opacity="1.00"/><circle cx="91.35" cy="-11.01" r="2.81" style="--b:0.14;--p:0.74;animation-delay:-2.48s" opacity="0.14"/><circle cx="-91.54" cy="-10.97" r="2.51" style="--b:0.14;--p:0.74;animation-delay:-2.48s" opacity="0.14"/><circle cx="-45.87" cy="-10.87" r="7.73" style="--b:0.79;--p:1.00;animation-delay:-1.27s" opacity="0.79"/><circle cx="22.71" cy="-0.27" r="8.06" style="--b:0.95;--p:1.00;animation-delay:-0.61s" opacity="0.95"/><circle cx="-22.89" cy="-0.21" r="7.9" style="--b:0.95;--p:1.00;animation-delay:-0.62s" opacity="0.95"/><circle cx="68.28" cy="-0.15" r="7.87" style="--b:0.64;--p:1.00;animation-delay:-1.84s" opacity="0.64"/><circle cx="-68.62" cy="-0.11" r="8" style="--b:0.64;--p:1.00;animation-delay:-1.85s" opacity="0.64"/><circle cx="-0.06" cy="10.98" r="7.87" style="--b:1.00;--p:1.00;animation-delay:-0.30s" opacity="1.00"/><circle cx="45.54" cy="11" r="7.83" style="--b:0.79;--p:1.00;animation-delay:-1.26s" opacity="0.79"/><circle cx="-45.85" cy="11.02" r="7.77" style="--b:0.79;--p:1.00;animation-delay:-1.27s" opacity="0.79"/><circle cx="-91.26" cy="11.1" r="2.71" style="--b:0.14;--p:0.74;animation-delay:-2.48s" opacity="0.14"/><circle cx="91.24" cy="11.13" r="2.61" style="--b:0.14;--p:0.74;animation-delay:-2.47s" opacity="0.14"/><circle cx="22.71" cy="21.64" r="2.71" style="--b:0.63;--p:1.00;animation-delay:-0.84s" opacity="0.63"/><circle cx="-68.74" cy="21.66" r="7.87" style="--b:0.62;--p:1.00;animation-delay:-1.94s" opacity="0.62"/><circle cx="-22.86" cy="21.67" r="7.87" style="--b:0.89;--p:1.00;animation-delay:-0.85s" opacity="0.89"/><circle cx="68.28" cy="21.67" r="7.87" style="--b:0.62;--p:1.00;animation-delay:-1.93s" opacity="0.62"/><circle cx="-91.54" cy="32.46" r="2.61" style="--b:0.14;--p:0.74;animation-delay:-2.61s" opacity="0.14"/><circle cx="0.15" cy="32.46" r="2.71" style="--b:0.62;--p:1.00;animation-delay:-0.87s" opacity="0.62"/><circle cx="-45.72" cy="32.5" r="7.73" style="--b:0.73;--p:1.00;animation-delay:-1.51s" opacity="0.73"/><circle cx="45.54" cy="32.59" r="7.83" style="--b:0.73;--p:1.00;animation-delay:-1.51s" opacity="0.73"/><circle cx="91.35" cy="32.63" r="2.81" style="--b:0.14;--p:0.74;animation-delay:-2.61s" opacity="0.14"/><circle cx="-23.01" cy="43.23" r="2.61" style="--b:0.47;--p:1.00;animation-delay:-1.32s" opacity="0.47"/><circle cx="68.25" cy="43.31" r="7.83" style="--b:0.56;--p:1.00;animation-delay:-2.18s" opacity="0.56"/><circle cx="-68.71" cy="43.34" r="7.83" style="--b:0.56;--p:1.00;animation-delay:-2.19s" opacity="0.56"/><circle cx="22.71" cy="43.37" r="2.9" style="--b:0.47;--p:1.00;animation-delay:-1.32s" opacity="0.47"/><circle cx="91.39" cy="53.92" r="2.71" style="--b:0.14;--p:0.74;animation-delay:-2.86s" opacity="0.14"/><circle cx="45.48" cy="53.95" r="7.87" style="--b:0.63;--p:1.00;animation-delay:-1.90s" opacity="0.63"/><circle cx="-45.86" cy="53.97" r="7.8" style="--b:0.63;--p:1.00;animation-delay:-1.91s" opacity="0.63"/><circle cx="-91.34" cy="53.99" r="2.61" style="--b:0.14;--p:0.74;animation-delay:-2.86s" opacity="0.14"/><circle cx="0.2" cy="54.09" r="2.61" style="--b:0.43;--p:1.00;animation-delay:-1.46s" opacity="0.43"/><circle cx="-68.57" cy="64.9" r="7.8" style="--b:0.47;--p:0.92;animation-delay:-2.54s" opacity="0.47"/><circle cx="-22.86" cy="64.92" r="2.71" style="--b:0.29;--p:0.89;animation-delay:-1.85s" opacity="0.29"/><circle cx="68.28" cy="64.92" r="2.71" style="--b:0.14;--p:0.74;animation-delay:-2.54s" opacity="0.14"/><circle cx="22.54" cy="65.15" r="2.81" style="--b:0.29;--p:0.89;animation-delay:-1.86s" opacity="0.29"/><circle cx="-45.88" cy="75.56" r="7.8" style="--b:0.51;--p:0.96;animation-delay:-2.38s" opacity="0.51"/><circle cx="0.1" cy="75.62" r="2.61" style="--b:0.23;--p:0.83;animation-delay:-2.04s" opacity="0.23"/><circle cx="45.32" cy="75.62" r="2.61" style="--b:0.14;--p:0.74;animation-delay:-2.37s" opacity="0.14"/><circle cx="22.53" cy="86.47" r="2.71" style="--b:0.14;--p:0.74;animation-delay:-2.41s" opacity="0.14"/><circle cx="-22.86" cy="86.75" r="2.71" style="--b:0.14;--p:0.74;animation-delay:-2.42s" opacity="0.14"/><circle cx="-0.03" cy="97.29" r="2.71" style="--b:0.14;--p:0.74;animation-delay:-2.62s" opacity="0.14"/></g></g>

<text class="wm" x="540" y="416" text-anchor="middle">HOLOGRAM OS</text>
</svg>