<svg xmlns="http://www.w3.org/2000/svg" viewBox="0 0 40 40"><g class="ball"><path d="M20 20 L36.00 20.00 A16 16 0 0 1 31.31 31.31 Z" fill="#ff3b30"/><path d="M20 20 L31.31 31.31 A16 16 0 0 1 20.00 36.00 Z" fill="#ff9500"/><path d="M20 20 L20.00 36.00 A16 16 0 0 1 8.69 31.31 Z" fill="#ffcc00"/><path d="M20 20 L8.69 31.31 A16 16 0 0 1 4.00 20.00 Z" fill="#34c759"/><path d="M20 20 L4.00 20.00 A16 16 0 0 1 8.69 8.69 Z" fill="#00c7be"/><path d="M20 20 L8.69 8.69 A16 16 0 0 1 20.00 4.00 Z" fill="#007aff"/><path d="M20 20 L20.00 4.00 A16 16 0 0 1 31.31 8.69 Z" fill="#5856d6"/><path d="M20 20 L31.31 8.69 A16 16 0 0 1 36.00 20.00 Z" fill="#af52de"/></g></svg>
