<svg xmlns="http://www.w3.org/2000/svg" viewBox="0 0 40 40"><g class="bss"><rect x="19" y="4" width="2" height="7" rx="1" fill="#8a8a8e" opacity="0.22" transform="rotate(0 20 20)"/><rect x="19" y="4" width="2" height="7" rx="1" fill="#8a8a8e" opacity="0.29" transform="rotate(30 20 20)"/><rect x="19" y="4" width="2" height="7" rx="1" fill="#8a8a8e" opacity="0.35" transform="rotate(60 20 20)"/><rect x="19" y="4" width="2" height="7" rx="1" fill="#8a8a8e" opacity="0.41" transform="rotate(90 20 20)"/><rect x="19" y="4" width="2" height="7" rx="1" fill="#8a8a8e" opacity="0.48" transform="rotate(120 20 20)"/><rect x="19" y="4" width="2" height="7" rx="1" fill="#8a8a8e" opacity="0.55" transform="rotate(150 20 20)"/><rect x="19" y="4" width="2" height="7" rx="1" fill="#8a8a8e" opacity="0.61" transform="rotate(180 20 20)"/><rect x="19" y="4" width="2" height="7" rx="1" fill="#8a8a8e" opacity="0.68" transform="rotate(210 20 20)"/><rect x="19" y="4" width="2" height="7" rx="1" fill="#8a8a8e" opacity="0.74" transform="rotate(240 20 20)"/><rect x="19" y="4" width="2" height="7" rx="1" fill="#8a8a8e" opacity="0.81" transform="rotate(270 20 20)"/><rect x="19" y="4" width="2" height="7" rx="1" fill="#8a8a8e" opacity="0.87" transform="rotate(300 20 20)"/><rect x="19" y="4" width="2" height="7" rx="1" fill="#8a8a8e" opacity="0.93" transform="rotate(330 20 20)"/></g></svg>
